<svg width="1440" height="1040" viewBox="0 0 1440 1040" fill="none" xmlns="http://www.w3.org/2000/svg">
<g clip-path="url(#clip0_1_38860)">
<rect width="1440" height="1040" fill="#0E0F11"/>
<line x1="713.806" y1="-10.379" x2="713.805" y2="947.582" stroke="#ECF15E" stroke-opacity="0.12"/>
<line x1="791.501" y1="-10.5962" x2="1245.93" y2="921.124" stroke="#ECF15E" stroke-opacity="0.12"/>
<line y1="-0.5" x2="1036.63" y2="-0.5" transform="matrix(0.438371 -0.898794 -0.898794 -0.438371 209.926 860.207)" stroke="#ECF15E" stroke-opacity="0.12"/>
<line x1="951.343" y1="-10.7916" x2="1451.64" y2="326.664" stroke="#ECF15E" stroke-opacity="0.12"/>
<line y1="-0.5" x2="603.469" y2="-0.5" transform="matrix(0.829038 -0.559193 -0.559193 -0.829038 -10.5 316.271)" stroke="#ECF15E" stroke-opacity="0.12"/>
<line x1="869.344" y1="-10.7306" x2="1420.41" y2="540.337" stroke="#ECF15E" stroke-opacity="0.12"/>
<line y1="-0.5" x2="779.327" y2="-0.5" transform="matrix(0.707107 -0.707107 -0.707107 -0.707107 6.2793 539.34)" stroke="#ECF15E" stroke-opacity="0.12"/>
<line x1="-180" y1="11.9005" x2="1620" y2="11.9005" stroke="#ECF15E" stroke-opacity="0.12"/>
<line x1="-180" y1="26.6113" x2="1620" y2="26.6113" stroke="#ECF15E" stroke-opacity="0.12"/>
<line x1="-180" y1="42.9061" x2="1620" y2="42.9061" stroke="#ECF15E" stroke-opacity="0.12"/>
<line x1="-180" y1="61.5723" x2="1620" y2="61.5723" stroke="#ECF15E" stroke-opacity="0.12"/>
<line x1="-180" y1="84.0352" x2="1620" y2="84.0352" stroke="#ECF15E" stroke-opacity="0.12"/>
<line x1="-180" y1="109.98" x2="1620" y2="109.98" stroke="#ECF15E" stroke-opacity="0.12"/>
<line x1="-180" y1="140.986" x2="1620" y2="140.986" stroke="#ECF15E" stroke-opacity="0.12"/>
<line x1="-180" y1="178.318" x2="1620" y2="178.318" stroke="#ECF15E" stroke-opacity="0.12"/>
<line x1="-180" y1="225.619" x2="1620" y2="225.619" stroke="#ECF15E" stroke-opacity="0.12"/>
<line x1="-180" y1="284.15" x2="1620" y2="284.15" stroke="#ECF15E" stroke-opacity="0.12"/>
<line x1="-180" y1="366.326" x2="1620" y2="366.326" stroke="#ECF15E" stroke-opacity="0.12"/>
<line x1="-180" y1="488.973" x2="1620" y2="488.973" stroke="#ECF15E" stroke-opacity="0.12"/>
<rect x="-180" y="-117" width="1800" height="1157" fill="url(#paint0_linear_1_38860)"/>
<g filter="url(#filter0_f_1_38860)">
<ellipse cx="720" cy="-32" rx="500" ry="100" fill="#ECF15E" fill-opacity="0.72"/>
</g>
</g>
<defs>
<filter id="filter0_f_1_38860" x="-380" y="-732" width="2200" height="1400" filterUnits="userSpaceOnUse" color-interpolation-filters="sRGB">
<feFlood flood-opacity="0" result="BackgroundImageFix"/>
<feBlend mode="normal" in="SourceGraphic" in2="BackgroundImageFix" result="shape"/>
<feGaussianBlur stdDeviation="300" result="effect1_foregroundBlur_1_38860"/>
</filter>
<linearGradient id="paint0_linear_1_38860" x1="720" y1="-117" x2="720" y2="1040" gradientUnits="userSpaceOnUse">
<stop stop-color="#0E0F11" stop-opacity="0"/>
<stop offset="0.358581" stop-color="#0E0F11"/>
</linearGradient>
<clipPath id="clip0_1_38860">
<rect width="1440" height="1040" fill="white"/>
</clipPath>
</defs>
</svg>
